<mxfile host="app.diagrams.net" modified="2020-12-24T09:53:37.135Z" agent="5.0 (Macintosh; Intel Mac OS X 10_14_3) AppleWebKit/537.36 (KHTML, like Gecko) Chrome/87.0.4280.88 Safari/537.36" etag="AEE1cDmDu24_zAWJNk7w" version="14.1.2" type="github">
  <diagram id="KWwgeZRh1fq1bChzX2f5" name="Page-1">
    <mxGraphModel dx="1186" dy="764" grid="1" gridSize="10" guides="1" tooltips="1" connect="1" arrows="1" fold="1" page="1" pageScale="1" pageWidth="827" pageHeight="1169" math="0" shadow="0">
      <root>
        <mxCell id="0" />
        <mxCell id="1" parent="0" />
        <mxCell id="rOw8iKVTJf4IojkIjels-8" value="" style="edgeStyle=orthogonalEdgeStyle;rounded=0;orthogonalLoop=1;jettySize=auto;html=1;" parent="1" source="rOw8iKVTJf4IojkIjels-1" target="rOw8iKVTJf4IojkIjels-3" edge="1">
          <mxGeometry relative="1" as="geometry" />
        </mxCell>
        <mxCell id="rOw8iKVTJf4IojkIjels-26" value="" style="edgeStyle=orthogonalEdgeStyle;rounded=0;orthogonalLoop=1;jettySize=auto;html=1;" parent="1" source="rOw8iKVTJf4IojkIjels-1" target="rOw8iKVTJf4IojkIjels-2" edge="1">
          <mxGeometry relative="1" as="geometry" />
        </mxCell>
        <mxCell id="rOw8iKVTJf4IojkIjels-27" value="n:1" style="edgeLabel;html=1;align=center;verticalAlign=middle;resizable=0;points=[];" parent="rOw8iKVTJf4IojkIjels-26" vertex="1" connectable="0">
          <mxGeometry x="-0.175" y="-4" relative="1" as="geometry">
            <mxPoint as="offset" />
          </mxGeometry>
        </mxCell>
        <mxCell id="rOw8iKVTJf4IojkIjels-1" value="学习项目" style="ellipse;whiteSpace=wrap;html=1;" parent="1" vertex="1">
          <mxGeometry x="40" y="80" width="120" height="80" as="geometry" />
        </mxCell>
        <mxCell id="rOw8iKVTJf4IojkIjels-2" value="证书" style="ellipse;whiteSpace=wrap;html=1;" parent="1" vertex="1">
          <mxGeometry x="40" y="240" width="120" height="80" as="geometry" />
        </mxCell>
        <mxCell id="rOw8iKVTJf4IojkIjels-9" value="" style="edgeStyle=orthogonalEdgeStyle;rounded=0;orthogonalLoop=1;jettySize=auto;html=1;" parent="1" source="rOw8iKVTJf4IojkIjels-3" target="rOw8iKVTJf4IojkIjels-4" edge="1">
          <mxGeometry relative="1" as="geometry" />
        </mxCell>
        <mxCell id="rOw8iKVTJf4IojkIjels-3" value="学习阶段" style="ellipse;whiteSpace=wrap;html=1;" parent="1" vertex="1">
          <mxGeometry x="230" y="80" width="120" height="80" as="geometry" />
        </mxCell>
        <mxCell id="rOw8iKVTJf4IojkIjels-10" value="" style="edgeStyle=orthogonalEdgeStyle;rounded=0;orthogonalLoop=1;jettySize=auto;html=1;" parent="1" source="rOw8iKVTJf4IojkIjels-4" target="rOw8iKVTJf4IojkIjels-6" edge="1">
          <mxGeometry relative="1" as="geometry" />
        </mxCell>
        <mxCell id="rOw8iKVTJf4IojkIjels-23" value="1:1" style="edgeLabel;html=1;align=center;verticalAlign=middle;resizable=0;points=[];" parent="rOw8iKVTJf4IojkIjels-10" vertex="1" connectable="0">
          <mxGeometry x="0.4444" y="1" relative="1" as="geometry">
            <mxPoint as="offset" />
          </mxGeometry>
        </mxCell>
        <mxCell id="rOw8iKVTJf4IojkIjels-11" style="edgeStyle=orthogonalEdgeStyle;rounded=0;orthogonalLoop=1;jettySize=auto;html=1;entryX=0.5;entryY=0;entryDx=0;entryDy=0;" parent="1" source="rOw8iKVTJf4IojkIjels-4" target="rOw8iKVTJf4IojkIjels-5" edge="1">
          <mxGeometry relative="1" as="geometry">
            <Array as="points">
              <mxPoint x="500" y="210" />
              <mxPoint x="330" y="210" />
            </Array>
          </mxGeometry>
        </mxCell>
        <mxCell id="rOw8iKVTJf4IojkIjels-22" value="n:1" style="edgeLabel;html=1;align=center;verticalAlign=middle;resizable=0;points=[];" parent="rOw8iKVTJf4IojkIjels-11" vertex="1" connectable="0">
          <mxGeometry x="0.7769" y="1" relative="1" as="geometry">
            <mxPoint as="offset" />
          </mxGeometry>
        </mxCell>
        <mxCell id="rOw8iKVTJf4IojkIjels-12" style="edgeStyle=orthogonalEdgeStyle;rounded=0;orthogonalLoop=1;jettySize=auto;html=1;" parent="1" edge="1">
          <mxGeometry relative="1" as="geometry">
            <mxPoint x="500" y="210" as="sourcePoint" />
            <mxPoint x="670" y="250" as="targetPoint" />
          </mxGeometry>
        </mxCell>
        <mxCell id="rOw8iKVTJf4IojkIjels-24" value="1:1" style="edgeLabel;html=1;align=center;verticalAlign=middle;resizable=0;points=[];" parent="rOw8iKVTJf4IojkIjels-12" vertex="1" connectable="0">
          <mxGeometry x="0.781" y="2" relative="1" as="geometry">
            <mxPoint as="offset" />
          </mxGeometry>
        </mxCell>
        <mxCell id="rOw8iKVTJf4IojkIjels-4" value="学习任务" style="ellipse;whiteSpace=wrap;html=1;" parent="1" vertex="1">
          <mxGeometry x="440" y="80" width="120" height="80" as="geometry" />
        </mxCell>
        <mxCell id="rOw8iKVTJf4IojkIjels-5" value="素材" style="ellipse;whiteSpace=wrap;html=1;" parent="1" vertex="1">
          <mxGeometry x="270" y="250" width="120" height="80" as="geometry" />
        </mxCell>
        <mxCell id="rOw8iKVTJf4IojkIjels-14" value="" style="edgeStyle=orthogonalEdgeStyle;rounded=0;orthogonalLoop=1;jettySize=auto;html=1;" parent="1" source="rOw8iKVTJf4IojkIjels-6" target="rOw8iKVTJf4IojkIjels-13" edge="1">
          <mxGeometry relative="1" as="geometry" />
        </mxCell>
        <mxCell id="rOw8iKVTJf4IojkIjels-25" value="n:n" style="edgeLabel;html=1;align=center;verticalAlign=middle;resizable=0;points=[];" parent="rOw8iKVTJf4IojkIjels-14" vertex="1" connectable="0">
          <mxGeometry x="-0.08" y="2" relative="1" as="geometry">
            <mxPoint as="offset" />
          </mxGeometry>
        </mxCell>
        <mxCell id="rOw8iKVTJf4IojkIjels-6" value="考试(可独立)" style="ellipse;whiteSpace=wrap;html=1;" parent="1" vertex="1">
          <mxGeometry x="440" y="250" width="120" height="80" as="geometry" />
        </mxCell>
        <mxCell id="rOw8iKVTJf4IojkIjels-7" value="直播(可独立)" style="ellipse;whiteSpace=wrap;html=1;" parent="1" vertex="1">
          <mxGeometry x="610" y="250" width="120" height="80" as="geometry" />
        </mxCell>
        <mxCell id="rOw8iKVTJf4IojkIjels-13" value="题库" style="ellipse;whiteSpace=wrap;html=1;" parent="1" vertex="1">
          <mxGeometry x="440" y="380" width="120" height="80" as="geometry" />
        </mxCell>
        <mxCell id="rOw8iKVTJf4IojkIjels-28" value="1:n" style="edgeStyle=orthogonalEdgeStyle;rounded=0;orthogonalLoop=1;jettySize=auto;html=1;" parent="1" source="rOw8iKVTJf4IojkIjels-15" target="rOw8iKVTJf4IojkIjels-18" edge="1">
          <mxGeometry relative="1" as="geometry" />
        </mxCell>
        <mxCell id="rOw8iKVTJf4IojkIjels-15" value="用户" style="ellipse;whiteSpace=wrap;html=1;" parent="1" vertex="1">
          <mxGeometry x="60" y="500" width="120" height="80" as="geometry" />
        </mxCell>
        <mxCell id="rOw8iKVTJf4IojkIjels-16" value="公司" style="ellipse;whiteSpace=wrap;html=1;" parent="1" vertex="1">
          <mxGeometry x="250" y="640" width="120" height="80" as="geometry" />
        </mxCell>
        <mxCell id="rOw8iKVTJf4IojkIjels-17" value="公司部门" style="ellipse;whiteSpace=wrap;html=1;" parent="1" vertex="1">
          <mxGeometry x="450" y="500" width="120" height="80" as="geometry" />
        </mxCell>
        <mxCell id="rOw8iKVTJf4IojkIjels-30" value="n:n" style="edgeStyle=orthogonalEdgeStyle;rounded=0;orthogonalLoop=1;jettySize=auto;html=1;" parent="1" source="rOw8iKVTJf4IojkIjels-18" target="rOw8iKVTJf4IojkIjels-17" edge="1">
          <mxGeometry relative="1" as="geometry" />
        </mxCell>
        <mxCell id="rOw8iKVTJf4IojkIjels-31" value="" style="edgeStyle=orthogonalEdgeStyle;rounded=0;orthogonalLoop=1;jettySize=auto;html=1;" parent="1" source="rOw8iKVTJf4IojkIjels-18" target="rOw8iKVTJf4IojkIjels-16" edge="1">
          <mxGeometry relative="1" as="geometry" />
        </mxCell>
        <mxCell id="rOw8iKVTJf4IojkIjels-32" value="1:n" style="edgeLabel;html=1;align=center;verticalAlign=middle;resizable=0;points=[];" parent="rOw8iKVTJf4IojkIjels-31" vertex="1" connectable="0">
          <mxGeometry x="-0.05" y="2" relative="1" as="geometry">
            <mxPoint as="offset" />
          </mxGeometry>
        </mxCell>
        <mxCell id="rOw8iKVTJf4IojkIjels-18" value="公司用户" style="ellipse;whiteSpace=wrap;html=1;" parent="1" vertex="1">
          <mxGeometry x="250" y="500" width="120" height="80" as="geometry" />
        </mxCell>
        <mxCell id="rOw8iKVTJf4IojkIjels-20" value="1:n" style="text;html=1;align=center;verticalAlign=middle;resizable=0;points=[];autosize=1;" parent="1" vertex="1">
          <mxGeometry x="175" y="90" width="30" height="20" as="geometry" />
        </mxCell>
        <mxCell id="rOw8iKVTJf4IojkIjels-21" value="1:n" style="text;html=1;align=center;verticalAlign=middle;resizable=0;points=[];autosize=1;" parent="1" vertex="1">
          <mxGeometry x="375" y="90" width="30" height="20" as="geometry" />
        </mxCell>
      </root>
    </mxGraphModel>
  </diagram>
</mxfile>
